<mxfile host="app.diagrams.net" modified="2022-09-11T11:35:47.002Z" agent="5.0 (Windows NT 6.1; Win64; x64) AppleWebKit/537.36 (KHTML, like Gecko) Chrome/105.0.0.0 Safari/537.36" etag="UIWSujvuH3RdDPmqIMyy" version="20.3.0" type="github">
  <diagram id="gXqk3LSBlGY-Nq-l82qe" name="Page-1">
    <mxGraphModel dx="782" dy="470" grid="1" gridSize="10" guides="1" tooltips="1" connect="1" arrows="1" fold="1" page="1" pageScale="1" pageWidth="827" pageHeight="1169" math="0" shadow="0">
      <root>
        <mxCell id="0" />
        <mxCell id="1" parent="0" />
        <mxCell id="Zd3WPmY3Dh225TcTDmIm-1" value="Nesting&amp;nbsp; release to fabrication" style="rounded=1;whiteSpace=wrap;html=1;" parent="1" vertex="1">
          <mxGeometry x="175" y="220" width="120" height="60" as="geometry" />
        </mxCell>
        <mxCell id="59GLcaijZaMEl3zNb7uP-1" value="&lt;font style=&quot;font-size: 24px;&quot;&gt;Regular machines&lt;/font&gt;" style="text;html=1;align=center;verticalAlign=middle;resizable=0;points=[];autosize=1;strokeColor=none;fillColor=none;" vertex="1" parent="1">
          <mxGeometry x="120" y="30" width="220" height="40" as="geometry" />
        </mxCell>
        <mxCell id="59GLcaijZaMEl3zNb7uP-4" style="edgeStyle=orthogonalEdgeStyle;rounded=0;orthogonalLoop=1;jettySize=auto;html=1;fontSize=12;" edge="1" parent="1" source="59GLcaijZaMEl3zNb7uP-3" target="Zd3WPmY3Dh225TcTDmIm-1">
          <mxGeometry relative="1" as="geometry" />
        </mxCell>
        <mxCell id="59GLcaijZaMEl3zNb7uP-6" value="" style="edgeStyle=orthogonalEdgeStyle;rounded=0;orthogonalLoop=1;jettySize=auto;html=1;fontSize=12;" edge="1" parent="1" source="59GLcaijZaMEl3zNb7uP-3">
          <mxGeometry relative="1" as="geometry">
            <mxPoint x="400" y="141" as="targetPoint" />
            <Array as="points">
              <mxPoint x="320" y="141" />
              <mxPoint x="320" y="141" />
            </Array>
          </mxGeometry>
        </mxCell>
        <mxCell id="59GLcaijZaMEl3zNb7uP-3" value="&lt;font style=&quot;font-size: 12px;&quot;&gt;Work order form from production/operation&lt;/font&gt;" style="rounded=1;whiteSpace=wrap;html=1;fontSize=24;" vertex="1" parent="1">
          <mxGeometry x="170" y="100" width="130" height="80" as="geometry" />
        </mxCell>
        <mxCell id="59GLcaijZaMEl3zNb7uP-8" value="Points to be listed in work order form" style="swimlane;horizontal=0;fontSize=12;startSize=23;" vertex="1" parent="1">
          <mxGeometry x="400" y="110" width="280" height="230" as="geometry" />
        </mxCell>
        <mxCell id="59GLcaijZaMEl3zNb7uP-9" value="&lt;br&gt;1. Machine release for Forecast or order&lt;br&gt;2. configuration of machine&lt;br&gt;3. Qty of release&lt;br&gt;" style="text;html=1;align=center;verticalAlign=middle;resizable=0;points=[];autosize=1;strokeColor=none;fillColor=none;fontSize=12;" vertex="1" parent="1">
          <mxGeometry x="420" y="100" width="240" height="70" as="geometry" />
        </mxCell>
      </root>
    </mxGraphModel>
  </diagram>
</mxfile>
